<svg width="94" height="47" viewBox="0 0 94 47" fill="none" xmlns="http://www.w3.org/2000/svg">
<path d="M1.88 -1.43051e-06V11.952L7.16 6H7.4L3.488 10.416L8.648 18H6.968L2.528 11.472L1.88 12.216V18H0.2V-1.43051e-06H1.88ZM20.3966 18C19.7406 18 19.2366 17.856 18.8846 17.568C18.5486 17.28 18.3726 16.992 18.3566 16.704L18.3326 16.296V8.76C18.3326 7.496 18.0046 6.688 17.3486 6.336C17.0126 6.176 16.5966 6.096 16.1006 6.096C15.0766 6.096 14.1566 6.504 13.3406 7.32C12.5246 8.12 12.1166 8.84 12.1166 9.48V18H10.4366V6H12.1166V8.736C12.3886 8.048 12.8926 7.408 13.6286 6.816C14.3646 6.208 15.1726 5.904 16.0526 5.904C16.9326 5.904 17.6446 5.992 18.1886 6.168C18.7486 6.328 19.1566 6.56 19.4126 6.864C19.8126 7.36 20.0126 8 20.0126 8.784V16.296C20.0126 16.76 20.1006 17.12 20.2766 17.376C20.4686 17.616 20.6606 17.744 20.8526 17.76L21.1166 17.808H21.8606V18H20.3966ZM27.7964 18.096C26.1164 18.096 24.7484 17.616 23.6924 16.656C22.6364 15.696 22.1084 14.216 22.1084 12.216C22.1084 10.216 22.6524 8.664 23.7404 7.56C24.8444 6.456 26.2364 5.904 27.9164 5.904C29.6124 5.904 30.9884 6.384 32.0444 7.344C33.1004 8.304 33.6284 9.784 33.6284 11.784C33.6284 13.784 33.0764 15.336 31.9724 16.44C30.8844 17.544 29.4924 18.096 27.7964 18.096ZM27.9644 6.096C26.7484 6.096 25.7404 6.64 24.9404 7.728C24.1404 8.8 23.7404 10.304 23.7404 12.24C23.7404 14.16 24.1084 15.584 24.8444 16.512C25.5804 17.44 26.5564 17.904 27.7724 17.904C28.9884 17.904 29.9964 17.368 30.7964 16.296C31.5964 15.208 31.9964 13.704 31.9964 11.784C31.9964 9.848 31.6284 8.416 30.8924 7.488C30.1564 6.56 29.1804 6.096 27.9644 6.096ZM51.3476 6.144L51.4916 6C51.5556 6.032 51.6356 6.128 51.7316 6.288C51.8436 6.448 51.9076 6.592 51.9236 6.72C51.9556 6.848 51.9716 6.968 51.9716 7.08C51.9716 7.512 51.8756 7.952 51.6836 8.4L47.3156 18H47.0756L43.6196 8.712L39.3956 18H39.1556L34.6916 6H36.3716L40.0436 15.936L43.4996 8.424L42.6116 6H44.2916L47.9636 15.936L51.4436 8.4C51.6356 8.064 51.7316 7.664 51.7316 7.2C51.7316 6.736 51.6036 6.384 51.3476 6.144ZM53.9165 10.968H61.1645V11.16H53.9165V10.968ZM63.2619 6.192V6H63.7659V3.6H65.4459V6H69.1179V6.192H65.4459V14.928C65.4459 15.968 65.5579 16.72 65.7819 17.184C66.0219 17.648 66.5099 17.88 67.2459 17.88C67.9979 17.88 68.7579 17.728 69.5259 17.424L69.5979 17.616C68.7979 17.92 67.8779 18.072 66.8379 18.072C65.8139 18.072 65.0459 17.864 64.5339 17.448C64.0219 17.016 63.7659 16.168 63.7659 14.904V6.192H63.2619ZM80.7509 18C80.0949 18 79.5909 17.856 79.2389 17.568C78.9029 17.28 78.7269 16.992 78.7109 16.704L78.6869 16.296V8.76C78.6869 7.496 78.3509 6.688 77.6789 6.336C77.3589 6.176 76.9509 6.096 76.4549 6.096C75.4629 6.096 74.5669 6.504 73.7669 7.32C72.9829 8.12 72.5909 8.84 72.5909 9.48V18H70.9109V0.0239997H72.5909V8.736C72.8469 8.048 73.3349 7.408 74.0549 6.816C74.7749 6.208 75.5829 5.904 76.4789 5.904C78.0309 5.904 79.0629 6.176 79.5749 6.72C80.1029 7.248 80.3669 7.936 80.3669 8.784V16.296C80.3669 16.76 80.4549 17.12 80.6309 17.376C80.8229 17.616 81.0069 17.744 81.1829 17.76L81.4709 17.808H82.2149V18H80.7509ZM85.1701 12.144C85.1701 14.128 85.5141 15.584 86.2021 16.512C86.9061 17.44 87.8261 17.904 88.9621 17.904C90.5621 17.904 91.9861 17.664 93.2341 17.184L93.3061 17.352C92.0261 17.848 90.5781 18.096 88.9621 18.096C87.3621 18.096 86.0581 17.616 85.0501 16.656C84.0421 15.696 83.5381 14.216 83.5381 12.216C83.5381 10.216 84.0661 8.664 85.1221 7.56C86.1781 6.456 87.5221 5.904 89.1541 5.904C90.4661 5.904 91.5701 6.296 92.4661 7.08C93.3621 7.864 93.8101 9.024 93.8101 10.56C93.8101 10.64 93.8101 10.72 93.8101 10.8H85.2421C85.1941 11.232 85.1701 11.68 85.1701 12.144ZM92.1781 10.608C92.1621 9.072 91.8661 7.936 91.2901 7.2C90.7141 6.464 89.9701 6.096 89.0581 6.096C88.1461 6.096 87.3301 6.496 86.6101 7.296C85.9061 8.096 85.4581 9.2 85.2661 10.608H92.1781ZM8.576 46.096C5.584 46.096 3.368 45.248 1.928 43.552C1.416 42.944 1 42.136 0.68 41.128C0.36 40.12 0.2 38.896 0.2 37.456C0.2 36.016 0.432 34.728 0.896 33.592C1.376 32.44 2.024 31.552 2.84 30.928C4.424 29.76 6.336 29.176 8.576 29.176C9.296 29.176 10 29.232 10.688 29.344C11.376 29.44 11.888 29.544 12.224 29.656L12.728 29.824L12.656 30.064C11.408 29.632 10.048 29.416 8.576 29.416C6.88 29.416 5.464 29.968 4.328 31.072C3.464 31.888 2.856 33.088 2.504 34.672C2.296 35.568 2.192 36.664 2.192 37.96C2.192 39.256 2.376 40.456 2.744 41.56C3.112 42.648 3.528 43.456 3.992 43.984C4.472 44.512 5.048 44.936 5.72 45.256C6.392 45.56 6.928 45.736 7.328 45.784C7.728 45.832 8.2 45.856 8.744 45.856C9.304 45.856 10.048 45.792 10.976 45.664V40.72H8.072V40.48H14V40.72H12.968V45.448C11.752 45.88 10.288 46.096 8.576 46.096ZM27.4852 46C26.0772 46 25.1892 45.632 24.8212 44.896C24.7412 44.736 24.7012 44.592 24.7012 44.464V28.024H26.3812V44.296C26.3812 44.76 26.4692 45.12 26.6452 45.376C26.8372 45.616 27.0292 45.744 27.2212 45.76L27.4852 45.808H28.2292V46H27.4852ZM43.8914 46.096C42.2114 46.096 40.8434 45.616 39.7874 44.656C38.7314 43.696 38.2034 42.216 38.2034 40.216C38.2034 38.216 38.7474 36.664 39.8354 35.56C40.9394 34.456 42.3314 33.904 44.0114 33.904C45.7074 33.904 47.0834 34.384 48.1394 35.344C49.1954 36.304 49.7234 37.784 49.7234 39.784C49.7234 41.784 49.1714 43.336 48.0674 44.44C46.9794 45.544 45.5874 46.096 43.8914 46.096ZM44.0594 34.096C42.8434 34.096 41.8354 34.64 41.0354 35.728C40.2354 36.8 39.8354 38.304 39.8354 40.24C39.8354 42.16 40.2034 43.584 40.9394 44.512C41.6754 45.44 42.6514 45.904 43.8674 45.904C45.0834 45.904 46.0914 45.368 46.8914 44.296C47.6914 43.208 48.0914 41.704 48.0914 39.784C48.0914 37.848 47.7234 36.416 46.9874 35.488C46.2514 34.56 45.2754 34.096 44.0594 34.096ZM60.5244 28.024H62.2044V36.976C62.4764 36.24 62.9804 35.544 63.7164 34.888C64.4524 34.232 65.2844 33.904 66.2124 33.904C69.4604 33.904 71.0844 35.808 71.0844 39.616C71.0844 43.936 68.9884 46.096 64.7964 46.096C63.5644 46.096 62.1404 45.896 60.5244 45.496V28.024ZM66.1884 34.096C65.1964 34.096 64.3004 34.528 63.5004 35.392C62.7004 36.24 62.2684 37.008 62.2044 37.696V45.352C63.1804 45.72 64.0364 45.904 64.7724 45.904C67.8604 45.904 69.4044 43.8 69.4044 39.592C69.4044 35.928 68.3324 34.096 66.1884 34.096ZM83.9851 40.144C83.9851 42.128 84.3291 43.584 85.0171 44.512C85.7211 45.44 86.6411 45.904 87.7771 45.904C89.3771 45.904 90.8011 45.664 92.0491 45.184L92.1211 45.352C90.8411 45.848 89.3931 46.096 87.7771 46.096C86.1771 46.096 84.8731 45.616 83.8651 44.656C82.8571 43.696 82.3531 42.216 82.3531 40.216C82.3531 38.216 82.8811 36.664 83.9371 35.56C84.9931 34.456 86.3371 33.904 87.9691 33.904C89.2811 33.904 90.3851 34.296 91.2811 35.08C92.1771 35.864 92.6251 37.024 92.6251 38.56C92.6251 38.64 92.6251 38.72 92.6251 38.8H84.0571C84.0091 39.232 83.9851 39.68 83.9851 40.144ZM90.9931 38.608C90.9771 37.072 90.6811 35.936 90.1051 35.2C89.5291 34.464 88.7851 34.096 87.8731 34.096C86.9611 34.096 86.1451 34.496 85.4251 35.296C84.7211 36.096 84.2731 37.2 84.0811 38.608H90.9931Z" fill="black"/>
</svg>
